<?xml version="1.0" encoding="utf-8"?>
<!-- Generator: Adobe Illustrator 16.0.0, SVG Export Plug-In . SVG Version: 6.00 Build 0)  -->
<!DOCTYPE svg PUBLIC "-//W3C//DTD SVG 1.1//EN" "http://www.w3.org/Graphics/SVG/1.1/DTD/svg11.dtd">
<svg version="1.1" id="Modo_de_aislamiento" xmlns="http://www.w3.org/2000/svg" xmlns:xlink="http://www.w3.org/1999/xlink"
	 x="0px" y="0px" width="428px" height="171px" viewBox="0 0 428 171" enable-background="new 0 0 428 171" xml:space="preserve">
<g>
	<path fill="#8000C4" d="M30.994,16.131h32.904v8.208H40.065v13.392H62.53v8.208H40.065v21.168h-9.072V16.131z"/>
	<path fill="#8000C4" d="M72.321,16.131h17.712c2.448,0,4.812,0.229,7.092,0.684c2.279,0.457,4.308,1.236,6.084,2.34
		c1.775,1.105,3.191,2.592,4.248,4.464c1.055,1.872,1.584,4.248,1.584,7.128c0,3.697-1.021,6.792-3.06,9.288
		c-2.041,2.496-4.957,4.008-8.748,4.536l13.536,22.536H99.825l-11.808-21.6h-6.624v21.6h-9.072V16.131z M88.449,37.731
		c1.296,0,2.592-0.06,3.888-0.18c1.296-0.119,2.484-0.407,3.564-0.864c1.08-0.456,1.955-1.152,2.628-2.088
		c0.671-0.936,1.008-2.244,1.008-3.924c0-1.487-0.312-2.688-0.936-3.6c-0.624-0.911-1.44-1.595-2.448-2.052
		c-1.008-0.456-2.124-0.756-3.348-0.9c-1.224-0.144-2.412-0.216-3.564-0.216h-7.848v13.824H88.449z"/>
	<path fill="#8000C4" d="M114.944,41.835c0-4.079,0.671-7.787,2.016-11.124c1.343-3.335,3.204-6.18,5.58-8.532
		c2.376-2.351,5.208-4.164,8.496-5.436c3.287-1.271,6.9-1.908,10.836-1.908c3.984-0.047,7.632,0.54,10.944,1.764
		c3.312,1.224,6.167,3.013,8.568,5.364c2.399,2.353,4.271,5.184,5.616,8.496c1.343,3.312,2.016,7.009,2.016,11.088
		c0,3.985-0.673,7.608-2.016,10.872c-1.344,3.265-3.216,6.073-5.616,8.424c-2.401,2.353-5.256,4.188-8.568,5.508
		c-3.312,1.319-6.96,2.003-10.944,2.052c-3.936,0-7.549-0.637-10.836-1.908c-3.288-1.271-6.12-3.071-8.496-5.4
		c-2.376-2.328-4.237-5.123-5.58-8.388C115.616,49.443,114.944,45.82,114.944,41.835z M124.448,41.259
		c0,2.736,0.419,5.256,1.26,7.56c0.839,2.304,2.027,4.296,3.564,5.976c1.536,1.681,3.372,3,5.508,3.96
		c2.135,0.961,4.523,1.44,7.164,1.44c2.639,0,5.04-0.479,7.2-1.44c2.16-0.959,4.007-2.279,5.544-3.96
		c1.536-1.68,2.724-3.672,3.564-5.976c0.839-2.304,1.26-4.824,1.26-7.56c0-2.543-0.421-4.919-1.26-7.128
		c-0.84-2.207-2.028-4.14-3.564-5.796c-1.537-1.656-3.384-2.952-5.544-3.888c-2.16-0.936-4.561-1.404-7.2-1.404
		c-2.641,0-5.029,0.468-7.164,1.404c-2.136,0.936-3.973,2.232-5.508,3.888c-1.537,1.656-2.725,3.589-3.564,5.796
		C124.868,36.339,124.448,38.715,124.448,41.259z"/>
	<path fill="#8000C4" d="M177.656,16.131h12.024l24.696,37.872h0.144V16.131h9.072v50.976h-11.52l-25.2-39.096h-0.144v39.096h-9.072
		V16.131z"/>
	<path fill="#8000C4" d="M245.406,24.339h-15.623v-8.208h40.32v8.208h-15.625v42.768h-9.072V24.339z"/>
	<path fill="#8000C4" d="M276.295,16.131h33.768v8.208h-24.697v12.528h23.4v8.208h-23.4v13.824h25.992v8.208h-35.062V16.131z"/>
	<path fill="#8000C4" d="M320.285,16.131h12.023l24.697,37.872h0.143V16.131h9.072v50.976h-11.52l-25.199-39.096h-0.145v39.096
		h-9.072V16.131z"/>
	<path fill="#8000C4" d="M377.598,16.131h20.088c3.357,0,6.598,0.517,9.719,1.548c3.119,1.033,5.879,2.604,8.281,4.716
		c2.398,2.113,4.318,4.764,5.76,7.956c1.439,3.192,2.16,6.948,2.16,11.268c0,4.368-0.828,8.148-2.484,11.34
		c-1.656,3.193-3.793,5.832-6.408,7.92c-2.617,2.088-5.521,3.648-8.713,4.68c-3.191,1.033-6.324,1.548-9.395,1.548h-19.008V16.131z
		 M393.438,58.899c2.83,0,5.508-0.324,8.027-0.972s4.717-1.656,6.588-3.024c1.871-1.368,3.348-3.143,4.428-5.328
		c1.08-2.184,1.621-4.835,1.621-7.956c0-3.071-0.48-5.712-1.441-7.92c-0.961-2.207-2.293-3.996-3.996-5.364
		s-3.721-2.376-6.047-3.024c-2.33-0.648-4.885-0.972-7.668-0.972h-8.281v34.56H393.438z"/>
	<path fill="#8000C4" d="M83.734,91.744c-1.602-2.318-3.741-4.02-6.42-5.099c-2.682-1.08-5.501-1.62-8.46-1.62
		c-1.761,0-3.461,0.201-5.1,0.6c-1.641,0.401-3.12,1.041-4.44,1.92c-1.32,0.881-2.381,2.021-3.18,3.42
		c-0.801,1.4-1.2,3.061-1.2,4.98c0,2.879,1,5.08,3,6.6c1.999,1.521,4.479,2.84,7.44,3.96c2.959,1.121,6.199,2.201,9.72,3.239
		c3.52,1.041,6.759,2.481,9.72,4.32c2.958,1.842,5.439,4.281,7.44,7.32c1.999,3.041,3,7.08,3,12.12c0,4.56-0.84,8.54-2.52,11.94
		c-1.68,3.4-3.941,6.221-6.78,8.459c-2.84,2.241-6.141,3.922-9.9,5.041c-3.761,1.119-7.721,1.68-11.88,1.68
		c-5.28,0-10.361-0.881-15.24-2.641c-4.88-1.758-9.081-4.719-12.6-8.879l11.4-11.041c1.839,2.802,4.26,4.98,7.26,6.541
		c3,1.56,6.18,2.34,9.54,2.34c1.759,0,3.52-0.24,5.28-0.721c1.759-0.48,3.36-1.199,4.8-2.16c1.44-0.959,2.599-2.178,3.48-3.66
		c0.879-1.479,1.32-3.18,1.32-5.1c0-3.119-1.001-5.52-3-7.199c-2-1.681-4.481-3.1-7.44-4.261c-2.96-1.159-6.201-2.259-9.72-3.3
		c-3.521-1.039-6.761-2.46-9.72-4.26c-2.96-1.801-5.441-4.2-7.44-7.2c-2-3-3-7.021-3-12.06c0-4.399,0.9-8.199,2.7-11.4
		c1.8-3.199,4.159-5.859,7.08-7.98c2.919-2.119,6.259-3.7,10.02-4.74c3.76-1.039,7.6-1.56,11.52-1.56c4.479,0,8.82,0.681,13.02,2.04
		c4.2,1.361,7.98,3.6,11.34,6.72L83.734,91.744z"/>
	<path fill="#8000C4" d="M128.373,87.185h-26.04v-13.68h67.2v13.68h-26.04v71.28h-15.12V87.185z"/>
	<path fill="#8000C4" d="M175.292,116.345c0-6.799,1.12-12.979,3.36-18.54c2.239-5.559,5.34-10.299,9.3-14.22
		c3.96-3.919,8.679-6.939,14.16-9.06c5.479-2.119,11.499-3.18,18.06-3.18c6.64-0.079,12.719,0.9,18.241,2.94
		c5.52,2.04,10.277,5.021,14.279,8.94c4,3.921,7.119,8.641,9.359,14.16s3.361,11.682,3.361,18.48c0,6.641-1.121,12.68-3.361,18.119
		c-2.24,5.441-5.359,10.121-9.359,14.041c-4.002,3.92-8.76,6.98-14.279,9.18c-5.521,2.199-11.601,3.34-18.241,3.42
		c-6.561,0-12.581-1.062-18.06-3.18c-5.481-2.119-10.2-5.119-14.16-9c-3.96-3.88-7.062-8.539-9.3-13.98
		C176.411,129.025,175.292,122.986,175.292,116.345z M191.131,115.385c0,4.561,0.7,8.76,2.1,12.6c1.399,3.84,3.379,7.161,5.94,9.961
		c2.56,2.801,5.62,5,9.18,6.6c3.559,1.602,7.54,2.4,11.94,2.4c4.398,0,8.4-0.799,12-2.4c3.6-1.6,6.68-3.799,9.24-6.6
		c2.561-2.8,4.539-6.121,5.939-9.961s2.102-8.039,2.102-12.6c0-4.239-0.701-8.199-2.102-11.88c-1.4-3.679-3.379-6.899-5.939-9.66
		c-2.561-2.76-5.641-4.92-9.24-6.48s-7.601-2.34-12-2.34c-4.4,0-8.381,0.78-11.94,2.34c-3.561,1.56-6.621,3.72-9.18,6.48
		c-2.561,2.761-4.541,5.981-5.94,9.66C191.831,107.186,191.131,111.146,191.131,115.385z"/>
	<path fill="#8000C4" d="M279.811,73.505h29.52c4.08,0,8.02,0.38,11.82,1.14c3.799,0.761,7.18,2.061,10.141,3.9
		c2.959,1.841,5.318,4.32,7.08,7.44c1.758,3.121,2.639,7.08,2.639,11.88c0,6.16-1.699,11.32-5.1,15.479
		c-3.4,4.161-8.262,6.681-14.58,7.56l22.561,37.561h-18.24l-19.68-36H294.93v36h-15.119V73.505z M306.691,109.505
		c2.158,0,4.318-0.1,6.479-0.3c2.16-0.199,4.141-0.68,5.941-1.44c1.799-0.759,3.258-1.92,4.379-3.479
		c1.119-1.561,1.68-3.739,1.68-6.541c0-2.479-0.521-4.479-1.559-6c-1.041-1.518-2.4-2.658-4.08-3.42
		c-1.682-0.759-3.541-1.259-5.58-1.5c-2.041-0.24-4.021-0.36-5.941-0.36h-13.08v23.04H306.691z"/>
	<path fill="#8000C4" d="M355.41,73.505h56.279v13.68h-41.16v20.879h39v13.68h-39v23.041h43.32v13.68H355.41V73.505z"/>
</g>
<g>
	<path fill="#FFFFFF" d="M26.994,12.131h32.904v8.208H36.065v13.392H58.53v8.208H36.065v21.168h-9.072V12.131z"/>
	<path fill="#FFFFFF" d="M68.321,12.131h17.712c2.448,0,4.812,0.229,7.092,0.684c2.279,0.457,4.308,1.236,6.084,2.34
		c1.775,1.105,3.191,2.592,4.248,4.464c1.055,1.872,1.584,4.248,1.584,7.128c0,3.697-1.021,6.792-3.06,9.288
		c-2.041,2.496-4.957,4.008-8.748,4.536l13.536,22.536H95.825l-11.808-21.6h-6.624v21.6h-9.072V12.131z M84.449,33.731
		c1.296,0,2.592-0.06,3.888-0.18c1.296-0.119,2.484-0.407,3.564-0.864c1.08-0.456,1.955-1.152,2.628-2.088
		c0.671-0.936,1.008-2.244,1.008-3.924c0-1.487-0.312-2.688-0.936-3.6c-0.624-0.911-1.44-1.595-2.448-2.052
		c-1.008-0.456-2.124-0.756-3.348-0.9c-1.224-0.144-2.412-0.216-3.564-0.216h-7.848v13.824H84.449z"/>
	<path fill="#FFFFFF" d="M110.944,37.835c0-4.079,0.671-7.787,2.016-11.124c1.343-3.335,3.204-6.18,5.58-8.532
		c2.376-2.351,5.208-4.164,8.496-5.436c3.287-1.271,6.9-1.908,10.836-1.908c3.984-0.047,7.632,0.54,10.944,1.764
		c3.312,1.224,6.167,3.013,8.568,5.364c2.399,2.353,4.271,5.184,5.616,8.496c1.343,3.312,2.016,7.009,2.016,11.088
		c0,3.985-0.673,7.608-2.016,10.872c-1.344,3.265-3.216,6.073-5.616,8.424c-2.401,2.353-5.256,4.188-8.568,5.508
		c-3.312,1.319-6.96,2.003-10.944,2.052c-3.936,0-7.549-0.637-10.836-1.908c-3.288-1.271-6.12-3.071-8.496-5.4
		c-2.376-2.328-4.237-5.123-5.58-8.388C111.616,45.443,110.944,41.82,110.944,37.835z M120.448,37.259
		c0,2.736,0.419,5.256,1.26,7.56c0.839,2.304,2.027,4.296,3.564,5.976c1.536,1.681,3.372,3,5.508,3.96
		c2.135,0.961,4.523,1.44,7.164,1.44c2.639,0,5.04-0.479,7.2-1.44c2.16-0.959,4.007-2.279,5.544-3.96
		c1.536-1.68,2.724-3.672,3.564-5.976c0.839-2.304,1.26-4.824,1.26-7.56c0-2.543-0.421-4.919-1.26-7.128
		c-0.84-2.207-2.028-4.14-3.564-5.796c-1.537-1.656-3.384-2.952-5.544-3.888c-2.16-0.936-4.561-1.404-7.2-1.404
		c-2.641,0-5.029,0.468-7.164,1.404c-2.136,0.936-3.973,2.232-5.508,3.888c-1.537,1.656-2.725,3.589-3.564,5.796
		C120.868,32.339,120.448,34.715,120.448,37.259z"/>
	<path fill="#FFFFFF" d="M173.656,12.131h12.024l24.696,37.872h0.144V12.131h9.072v50.976h-11.52l-25.2-39.096h-0.144v39.096h-9.072
		V12.131z"/>
	<path fill="#FFFFFF" d="M241.406,20.339h-15.623v-8.208h40.32v8.208h-15.625v42.768h-9.072V20.339z"/>
	<path fill="#FFFFFF" d="M272.295,12.131h33.768v8.208h-24.697v12.528h23.4v8.208h-23.4v13.824h25.992v8.208h-35.062V12.131z"/>
	<path fill="#FFFFFF" d="M316.285,12.131h12.023l24.697,37.872h0.143V12.131h9.072v50.976h-11.52l-25.199-39.096h-0.145v39.096
		h-9.072V12.131z"/>
	<path fill="#FFFFFF" d="M373.598,12.131h20.088c3.357,0,6.598,0.517,9.719,1.548c3.119,1.033,5.879,2.604,8.281,4.716
		c2.398,2.113,4.318,4.764,5.76,7.956c1.439,3.192,2.16,6.948,2.16,11.268c0,4.368-0.828,8.148-2.484,11.34
		c-1.656,3.193-3.793,5.832-6.408,7.92c-2.617,2.088-5.521,3.648-8.713,4.68c-3.191,1.033-6.324,1.548-9.395,1.548h-19.008V12.131z
		 M389.438,54.899c2.83,0,5.508-0.324,8.027-0.972s4.717-1.656,6.588-3.024c1.871-1.368,3.348-3.143,4.428-5.328
		c1.08-2.184,1.621-4.835,1.621-7.956c0-3.071-0.48-5.712-1.441-7.92c-0.961-2.207-2.293-3.996-3.996-5.364
		s-3.721-2.376-6.047-3.024c-2.33-0.648-4.885-0.972-7.668-0.972h-8.281v34.56H389.438z"/>
	<path fill="#FFCE00" d="M79.734,87.744c-1.602-2.318-3.741-4.02-6.42-5.099c-2.682-1.08-5.501-1.62-8.46-1.62
		c-1.761,0-3.461,0.201-5.1,0.6c-1.641,0.401-3.12,1.041-4.44,1.92c-1.32,0.881-2.381,2.021-3.18,3.42
		c-0.801,1.4-1.2,3.061-1.2,4.98c0,2.879,1,5.08,3,6.6c1.999,1.521,4.479,2.84,7.44,3.96c2.959,1.121,6.199,2.201,9.72,3.239
		c3.52,1.041,6.759,2.481,9.72,4.32c2.958,1.842,5.439,4.281,7.44,7.32c1.999,3.041,3,7.08,3,12.12c0,4.56-0.84,8.54-2.52,11.94
		c-1.68,3.4-3.941,6.221-6.78,8.459c-2.84,2.241-6.141,3.922-9.9,5.041c-3.761,1.119-7.721,1.68-11.88,1.68
		c-5.28,0-10.361-0.881-15.24-2.641c-4.88-1.758-9.081-4.719-12.6-8.879l11.4-11.041c1.839,2.802,4.26,4.98,7.26,6.541
		c3,1.56,6.18,2.34,9.54,2.34c1.759,0,3.52-0.24,5.28-0.721c1.759-0.48,3.36-1.199,4.8-2.16c1.44-0.959,2.599-2.178,3.48-3.66
		c0.879-1.479,1.32-3.18,1.32-5.1c0-3.119-1.001-5.52-3-7.199c-2-1.681-4.481-3.1-7.44-4.261c-2.96-1.159-6.201-2.259-9.72-3.3
		c-3.521-1.039-6.761-2.46-9.72-4.26c-2.96-1.801-5.441-4.2-7.44-7.2c-2-3-3-7.021-3-12.06c0-4.399,0.9-8.199,2.7-11.4
		c1.8-3.199,4.159-5.859,7.08-7.98c2.919-2.119,6.259-3.7,10.02-4.74c3.76-1.039,7.6-1.56,11.52-1.56c4.479,0,8.82,0.681,13.02,2.04
		c4.2,1.361,7.98,3.6,11.34,6.72L79.734,87.744z"/>
	<path fill="#FFCE00" d="M124.373,83.185h-26.04v-13.68h67.2v13.68h-26.04v71.28h-15.12V83.185z"/>
	<path fill="#FFCE00" d="M171.292,112.345c0-6.799,1.12-12.979,3.36-18.54c2.239-5.559,5.34-10.299,9.3-14.22
		c3.96-3.919,8.679-6.939,14.16-9.06c5.479-2.119,11.499-3.18,18.06-3.18c6.64-0.079,12.719,0.9,18.241,2.94
		c5.52,2.04,10.277,5.021,14.279,8.94c4,3.921,7.119,8.641,9.359,14.16s3.361,11.682,3.361,18.48c0,6.641-1.121,12.68-3.361,18.119
		c-2.24,5.441-5.359,10.121-9.359,14.041c-4.002,3.92-8.76,6.98-14.279,9.18c-5.521,2.199-11.601,3.34-18.241,3.42
		c-6.561,0-12.581-1.062-18.06-3.18c-5.481-2.119-10.2-5.119-14.16-9c-3.96-3.88-7.062-8.539-9.3-13.98
		C172.411,125.025,171.292,118.986,171.292,112.345z M187.131,111.385c0,4.561,0.7,8.76,2.1,12.6c1.399,3.84,3.379,7.161,5.94,9.961
		c2.56,2.801,5.62,5,9.18,6.6c3.559,1.602,7.54,2.4,11.94,2.4c4.398,0,8.4-0.799,12-2.4c3.6-1.6,6.68-3.799,9.24-6.6
		c2.561-2.8,4.539-6.121,5.939-9.961s2.102-8.039,2.102-12.6c0-4.239-0.701-8.199-2.102-11.88c-1.4-3.679-3.379-6.899-5.939-9.66
		c-2.561-2.76-5.641-4.92-9.24-6.48s-7.601-2.34-12-2.34c-4.4,0-8.381,0.78-11.94,2.34c-3.561,1.56-6.621,3.72-9.18,6.48
		c-2.561,2.761-4.541,5.981-5.94,9.66C187.831,103.186,187.131,107.146,187.131,111.385z"/>
	<path fill="#FFCE00" d="M275.811,69.505h29.52c4.08,0,8.02,0.38,11.82,1.14c3.799,0.761,7.18,2.061,10.141,3.9
		c2.959,1.841,5.318,4.32,7.08,7.44c1.758,3.121,2.639,7.08,2.639,11.88c0,6.16-1.699,11.32-5.1,15.479
		c-3.4,4.161-8.262,6.681-14.58,7.56l22.561,37.561h-18.24l-19.68-36H290.93v36h-15.119V69.505z M302.691,105.505
		c2.158,0,4.318-0.1,6.479-0.3c2.16-0.199,4.141-0.68,5.941-1.44c1.799-0.759,3.258-1.92,4.379-3.479
		c1.119-1.561,1.68-3.739,1.68-6.541c0-2.479-0.521-4.479-1.559-6c-1.041-1.518-2.4-2.658-4.08-3.42
		c-1.682-0.759-3.541-1.259-5.58-1.5c-2.041-0.24-4.021-0.36-5.941-0.36h-13.08v23.04H302.691z"/>
	<path fill="#FFCE00" d="M351.41,69.505h56.279v13.68h-41.16v20.879h39v13.68h-39v23.041h43.32v13.68H351.41V69.505z"/>
</g>
</svg>
